<svg xmlns="http://www.w3.org/2000/svg" width="10" height="10" fill="none" viewBox="0 0 10 10"><path fill="#40c4ff" fill-rule="evenodd" d="M3.238.006a1.8 1.8 0 0 0-.757.21c-.2.1-.31.18-.488.352-.386.37-.585.805-.633 1.381-.013.155-.017.165-.07.178-.129.031-.452.204-.598.32A1.83 1.83 0 0 0 .01 4.056q.08.734.628 1.265c.36.348.761.528 1.285.575.164.015 1.388.02 3.588.015 3.099-.006 3.35-.009 3.468-.043.487-.142.863-.523.985-.998.052-.203.047-.58-.011-.8a1.67 1.67 0 0 0-.79-1.035 1.9 1.9 0 0 0-.622-.205l-.14-.014v-.302c-.002-.35-.041-.53-.178-.813A1.8 1.8 0 0 0 7.16.77C6.957.7 6.942.698 6.6.698c-.311 0-.371.005-.512.049a2.1 2.1 0 0 0-.646.342l-.16.127-.036-.077a2.2 2.2 0 0 0-.664-.772 2.02 2.02 0 0 0-1.344-.36M1.92 6.186c-.044.023-.095.104-.197.31a2 2 0 0 0-.138.32c0 .189.254.297.379.162.073-.08.287-.53.287-.604 0-.172-.176-.273-.33-.189m6.135 0c-.054.037-.323.564-.323.63 0 .189.254.297.378.162.06-.065.305-.56.305-.614 0-.062-.057-.165-.106-.191a.31.31 0 0 0-.254.012m-4.236.194c-.012.02-.389 1.025-.408 1.088-.02.069.04.19.114.23.05.025.136.033.388.033h.323l-.012.048c-.006.026-.142.474-.3.995-.16.522-.29.978-.29 1.015 0 .141.142.242.285.202.069-.019.236-.208 1.36-1.536.705-.834 1.29-1.541 1.298-1.573a.24.24 0 0 0-.076-.239c-.052-.04-.083-.044-.49-.044-.285 0-.435-.007-.435-.022 0-.012.015-.056.032-.098a.5.5 0 0 0 .032-.096c0-.023-1.807-.025-1.821-.003m3.106.936c-.059.04-.324.564-.324.637 0 .184.209.292.35.18.086-.067.311-.53.311-.639 0-.17-.199-.275-.337-.178m-6.156.011c-.05.029-.315.557-.315.626 0 .184.21.292.35.18.08-.062.312-.53.312-.628 0-.114-.095-.202-.217-.2-.051 0-.11.01-.13.022m2.048 0c-.049.029-.314.557-.314.626 0 .184.21.292.35.18.08-.062.312-.53.312-.628 0-.114-.095-.202-.218-.2-.05 0-.109.01-.13.022m6.147 0c-.05.029-.315.557-.315.626 0 .184.21.292.35.18.08-.062.312-.53.312-.628 0-.114-.095-.202-.217-.2-.051 0-.11.01-.13.022m-7.275 1.14c-.083.045-.317.51-.317.628 0 .196.222.297.36.164.033-.03.115-.171.183-.311.104-.215.121-.267.11-.33-.028-.149-.198-.225-.336-.15m4.097 0c-.082.045-.317.51-.317.628 0 .196.222.297.36.164.033-.03.116-.171.184-.311.104-.215.121-.267.11-.33-.029-.149-.199-.225-.337-.15m2.049 0c-.082.045-.317.51-.317.628 0 .196.222.297.36.164.033-.03.115-.171.183-.311.105-.215.122-.267.11-.33-.028-.149-.198-.225-.336-.15" clip-rule="evenodd"/></svg>