<svg xmlns="http://www.w3.org/2000/svg" width="14" height="8" fill="none" viewBox="0 0 14 8"><path fill="#40c4ff" fill-rule="evenodd" d="M2.854.022C2.839.05 3.862 2.097 3.9 2.115c.051.023 1.316.016 1.31-.008-.004-.011-.414-.49-.91-1.064L3.395 0H3.13c-.155 0-.27.009-.277.022m-2.813.981C.018 1.008 0 1.028 0 1.05s.139.476.309 1.01c.258.815.319.986.37 1.049.276.336 1.405.576 3.138.667.467.024.468.024.511.08q.043.056.033.104c-.006.026-.35.726-.764 1.555s-.75 1.517-.743 1.529.12.022.277.022h.265L4.701 5.56C5.418 4.73 6.05 4 6.109 3.938l.104-.115.844-.01c.518-.007.888-.021.96-.037.178-.039.317-.11.393-.2.062-.073.069-.093.069-.195 0-.35-.417-.8-.864-.932-.109-.032-.413-.035-3.135-.035-2.029 0-3.026-.008-3.05-.023-.019-.012-.254-.333-.523-.713L.419.988.25.99a2 2 0 0 0-.21.013" clip-rule="evenodd"/><path fill="#40c4ff" stroke="#40c4ff" d="M11.589 1.913a1.196 1.196 0 1 1-.002 2.393 1.196 1.196 0 0 1 .002-2.393Z"/><path stroke="#40c4ff" stroke-linecap="round" stroke-width=".5" d="M11.588 2.544v4.522"/></svg>